<svg width="13" height="13" viewBox="0 0 13 13" fill="none" xmlns="http://www.w3.org/2000/svg">
   <g clip-path="url(#clip0_32_37)">
      <path d="M5.95834 2.16663H2.16668C1.87936 2.16663 1.60381 2.28076 1.40064 2.48393C1.19748 2.68709 1.08334 2.96264 1.08334 3.24996V10.8333C1.08334 11.1206 1.19748 11.3962 1.40064 11.5993C1.60381 11.8025 1.87936 11.9166 2.16668 11.9166H9.75001C10.0373 11.9166 10.3129 11.8025 10.516 11.5993C10.7192 11.3962 10.8333 11.1206 10.8333 10.8333V7.04163M10.0208 1.35413C10.2363 1.13864 10.5286 1.01758 10.8333 1.01758C11.1381 1.01758 11.4304 1.13864 11.6458 1.35413C11.8613 1.56962 11.9824 1.86188 11.9824 2.16663C11.9824 2.47137 11.8613 2.76364 11.6458 2.97913L6.50001 8.12496L4.33334 8.66663L4.87501 6.49996L10.0208 1.35413Z" stroke="#767676" stroke-linecap="round" stroke-linejoin="round"/>
   </g>
   <defs>
      <clipPath id="clip0_32_37">
         <rect width="13" height="13" fill="white"/>
      </clipPath>
    </defs>
</svg>
